<?xml version="1.0" encoding="UTF-8" standalone="no"?>
<svg
   xmlns:dc="http://purl.org/dc/elements/1.1/"
   xmlns:cc="http://creativecommons.org/ns#"
   xmlns:rdf="http://www.w3.org/1999/02/22-rdf-syntax-ns#"
   xmlns:svg="http://www.w3.org/2000/svg"
   xmlns="http://www.w3.org/2000/svg"
   xmlns:sodipodi="http://sodipodi.sourceforge.net/DTD/sodipodi-0.dtd"
   xmlns:inkscape="http://www.inkscape.org/namespaces/inkscape"
   sodipodi:docname="cycling_logo.svg"
   inkscape:version="1.0 (4035a4fb49, 2020-05-01)"
   id="svg8"
   version="1.1"
   viewBox="0 0 210 210"
   height="210mm"
   width="210mm">
  <defs
     id="defs2">
    <filter
       height="1.0000137"
       y="-6.8294768e-06"
       width="1.0000074"
       x="-3.7003793e-06"
       id="filter881"
       style="color-interpolation-filters:sRGB"
       inkscape:collect="always">
      <feGaussianBlur
         id="feGaussianBlur883"
         stdDeviation="0.0002388116"
         inkscape:collect="always" />
    </filter>
  </defs>
  <sodipodi:namedview
     inkscape:window-maximized="1"
     inkscape:window-y="-8"
     inkscape:window-x="-8"
     inkscape:window-height="1027"
     inkscape:window-width="1920"
     showgrid="false"
     inkscape:document-rotation="0"
     inkscape:current-layer="layer3"
     inkscape:document-units="mm"
     inkscape:cy="461.94828"
     inkscape:cx="514.02477"
     inkscape:zoom="0.49497475"
     inkscape:pageshadow="2"
     inkscape:pageopacity="0.0"
     borderopacity="1.0"
     bordercolor="#666666"
     pagecolor="#ffffff"
     id="base"
     inkscape:snap-nodes="false">
    <inkscape:grid
       id="grid833"
       type="xygrid" />
  </sodipodi:namedview>
  <metadata
     id="metadata5">
    <rdf:RDF>
      <cc:Work
         rdf:about="">
        <dc:format>image/svg+xml</dc:format>
        <dc:type
           rdf:resource="http://purl.org/dc/dcmitype/StillImage" />
        <dc:title />
      </cc:Work>
    </rdf:RDF>
  </metadata>
  <g
     inkscape:groupmode="layer"
     id="layer2"
     inkscape:label="tires_1"
     style="display:inline;opacity:1;filter:url(#filter881)">
    <path
       sodipodi:nodetypes="ccccccccccccccccccccc"
       id="path885"
       d="m 108.3675,135.33128 3.62564,4.31168 2.05784,3.33168 c 0.65329,1.69857 0.6533,2.87446 0,3.52774 l -3.13574,2.54781 -1.56781,-1.17593 -4.50766,2.93971 0.19594,2.25386 -5.487539,5.19358 c -4.704945,1.1883 -7.197099,2.1845 -9.603121,-1.17594 2.780077,-4.61318 5.248057,-7.65978 8.133258,-12.44496 -1.077772,-3.9524 -3.086891,-6.97361 -5.19352,-9.89716 -4.074843,-4.3783 -8.48846,-8.7002 -11.073055,-13.32686 l -7.251395,-10.38715 c -2.268048,-1.21131 -3.904229,-5.71501 -5.193561,-9.01524 -0.621781,-1.24902 -0.290997,-2.671357 1.1759,-4.703576 l 18.030491,2.645706 3.331721,10.97514 6.859373,12.83694 c 2.127508,5.37656 4.528308,7.22861 7.643318,11.46504 z"
       style="fill:#d9d9d9;fill-opacity:1;stroke:#ffffff;stroke-width:0;stroke-linecap:butt;stroke-linejoin:miter;stroke-miterlimit:4;stroke-dasharray:none;stroke-opacity:1;opacity:1" />
    <path
       style="fill:#d9d9d9;fill-opacity:1;stroke:#ffffff;stroke-width:0;stroke-linecap:butt;stroke-linejoin:miter;stroke-miterlimit:4;stroke-dasharray:none;stroke-opacity:1"
       d="m 138.60587,133.51249 c 10.38638,-8.1198 19.45498,-7.70449 26.81103,-1.77707 12.43552,11.88825 15.68868,30.66019 7.43055,47.04831 -9.90362,14.6091 -20.72257,17.29152 -32.82107,7.66679 -2.36175,1.62968 -4.71313,3.28254 -7.79522,3.29132 8.7409,8.37848 25.43478,15.61158 40.28875,0.82717 2.64653,-3.27603 5.54347,-6.64153 7.20406,-10.27222 15.06038,-32.92838 -9.64749,-76.41063 -44.58263,-54.54486 1.37874,2.6316 3.29027,5.36981 3.46453,7.76056 z"
       id="path846"
       sodipodi:nodetypes="ccccccscc" />
    <path
       style="fill:#d9d9d9;fill-opacity:1;stroke:#ffffff;stroke-width:0;stroke-linecap:butt;stroke-linejoin:miter;stroke-miterlimit:4;stroke-dasharray:none;stroke-opacity:1"
       d="m 125.61404,135.23335 c -3.1076,10.16579 -5.10212,21.28157 -3.52774,33.26817 l 2.54783,0.14702 4.70361,-1.17592 c -0.80776,-6.40215 -0.79068,-12.80429 0.48992,-19.20642 -1.39922,-4.39167 -2.57819,-10.76666 -4.21362,-13.03285 z"
       id="path848"
       sodipodi:nodetypes="cccccc" />
    <path
       style="fill:#d9d9d9;fill-opacity:1;stroke:#ffffff;stroke-width:0;stroke-linecap:butt;stroke-linejoin:miter;stroke-miterlimit:4;stroke-dasharray:none;stroke-opacity:1"
       d="m 130.29101,171.62235 c 0.59422,2.12487 0.95316,4.24981 2.14798,6.37474 l -4.43453,7.48338 c -1.6976,-3.79176 -3.53793,-7.53594 -4.71181,-11.50229 l 0.69291,-0.0694 4.43461,11.15579 2.66764,-4.71175 -3.56843,-7.5527 z"
       id="path850"
       sodipodi:nodetypes="ccccccccc" />
    <path
       style="fill:#d9d9d9;fill-opacity:1;stroke:#ffffff;stroke-width:0;stroke-linecap:butt;stroke-linejoin:miter;stroke-miterlimit:4;stroke-dasharray:none;stroke-opacity:1"
       d="m 74.560338,135.25784 c -2.783419,-1.92298 -7.001708,-3.28398 -11.073071,-4.43418 -5.564568,-0.3939 -10.096509,1.39635 -14.698768,3.03781 -5.53229,3.64216 -9.81963,8.28023 -12.738929,14.01279 -2.568353,4.91233 -4.05855,10.22884 -4.409636,15.97271 -1.025945,5.10325 0.712168,9.74575 1.76385,14.50278 1.429859,5.39323 4.599393,9.9166 7.839345,14.40473 1.896659,2.44492 5.180064,4.36979 8.525291,6.27151 4.393055,1.24316 8.847522,1.99507 13.424875,1.76383 5.046934,-0.92234 9.284886,-2.78855 13.228892,-4.99757 4.320397,-3.18925 6.786659,-7.49105 9.309217,-11.75903 2.005362,-4.73622 3.997437,-9.47255 4.017648,-14.20881 0.323785,-4.01176 0.371734,-7.90529 -0.587934,-11.36705 -0.852052,-3.22174 -1.418016,-6.32907 -3.135737,-9.89716 -2.449793,-3.89334 -5.43855,-7.46221 -7.88834,-10.43614 1.551078,-2.59232 3.343385,-4.88524 3.135737,-8.23128 3.496357,3.75448 7.456286,7.76154 10.044156,12.78793 3.782873,7.01922 4.22323,14.48407 5.389503,21.85219 0.682677,6.523 -0.664492,12.756 -2.547698,18.91241 -1.361565,3.59993 -2.837976,7.12325 -5.291593,9.99512 -2.458345,4.39129 -5.595493,6.25242 -8.78362,8.97071 -4.504508,1.57986 -9.034816,4.25717 -13.295039,5.11354 -10.703639,2.15159 -20.545941,0.44239 -29.073064,-7.4208 -4.861332,-4.79207 -7.768497,-10.2531 -10.779092,-15.67871 -2.037854,-4.75887 -2.951914,-9.76738 -3.331721,-14.89475 0.319405,-5.35049 -0.0089,-10.86306 1.665861,-15.87464 1.216957,-4.82605 2.922364,-9.55441 5.977499,-14.01282 2.375622,-3.67938 5.449745,-6.84501 9.211226,-9.50524 2.965737,-2.35511 6.629244,-4.36138 11.07307,-5.97747 4.002027,-0.8543 8.076595,-1.3822 12.44496,-0.58793 3.197842,0.31835 6.283616,0.91686 9.113238,2.15577 l 4.213646,2.37557 c -1.86119,2.85474 -2.048836,4.53273 -2.743772,7.15418 z"
       id="path852"
       sodipodi:nodetypes="cccccccccccccccccccccsccccccccccc" />
  </g>
  <g
     inkscape:groupmode="layer"
     id="layer3"
     inkscape:label="frame_1"
     style="display:inline;opacity:1">
    <path
       style="fill:#d9d9d9;fill-opacity:1;stroke:#ffffff;stroke-width:0;stroke-linecap:butt;stroke-linejoin:miter;stroke-miterlimit:4;stroke-dasharray:none;stroke-opacity:1"
       d="m 141.2927,151.40199 11.66104,8.5253 -10.7791,2.64569 0.48993,2.25387 13.81684,-4.40961 -15.38467,-11.56304 z"
       id="path868" />
    <path
       style="fill:#d9d9d9;fill-opacity:1;stroke:#ffffff;stroke-width:0;stroke-linecap:butt;stroke-linejoin:miter;stroke-miterlimit:4;stroke-dasharray:none;stroke-opacity:1"
       d="m 65.839071,160.22118 -2.743768,7.74142 c 0.544463,0.96871 1.34492,0.65741 2.057828,0.7839 l 3.919669,-7.93729 c 1.992113,-6.05587 4.84313,-12.28342 7.741352,-18.5205 l 1.665862,-4.01763 c 1.295974,-2.21574 3.128658,-3.05128 3.233726,-8.32931 l 1.469877,-3.72369 c 12.185433,14.72795 23.379443,31.43858 34.885093,47.52602 l 1.66584,0.97988 1.56786,-0.48988 0.7349,0.0979 1.8455,-0.37657 5.61029,9.95211 1.08284,-2.40818 -4.48588,-8.34824 c 2.64573,-0.7186 6.55598,-2.2864 8.83323,-4.11063 -0.0691,-1.63079 -0.0681,-3.01493 -0.48997,-5.87951 l -5.38956,1.56786 0.48993,2.44976 -4.60559,1.56784 -2.93975,-0.3919 c -1.91877,-1.68291 -3.09945,-3.71227 -4.31169,-2.5478 -10.69851,-14.76073 -20.377787,-33.61953 -32.147382,-44.07373 -0.998455,-1.4022 -1.305649,-3.08088 -1.385812,-4.85038 l 38.248414,11.36371 -2.00943,-3.81099 -0.97004,-1.76692 c -12.20946,-2.9958 -23.980997,-7.49983 -36.100433,-10.63619 l -0.692908,-3.46448 -4.157436,-0.55436 c 0.965185,4.94723 0.56175,9.30792 0.277162,13.71956 -2.7488,-0.1422 -4.226323,2.72751 -5.739238,4.17426 l 3.60906,1.91141 c -1.376923,1.56971 -1.758836,4.26754 -2.314182,7.3891 l -4.563437,13.27146 z"
       id="path866"
       sodipodi:nodetypes="ccccccccccccccccccccccccccccccccccccc" />
    <path
       sodipodi:nodetypes="ccccccccccccccccccccccccccccccccccccccccccccc"
       id="path853"
       d="m 99.254197,112.7932 c -4.249831,-1.52074 -9.681131,-1.63855 -12.052915,-5.38954 l -1.273897,-2.64579 -1.861841,-1.46984 3.33172,-2.35181 0.29398,-1.861843 -1.371895,0.195917 -4.409626,4.997576 -2.25381,-4.40951 1.175902,-4.115701 -4.605611,-4.605585 -2.841764,2.547778 -0.489964,0.979913 -1.371879,1.861839 c -1.272441,-0.654493 -2.591952,-1.269758 -4.409635,-1.469884 -1.1759,-0.273793 -2.351802,0.15637 -3.527705,0.293984 l -1.175896,1.1759 1.763847,0.8819 c 0.421014,0.466997 2.066886,1.342245 3.233734,2.057775 -1.731192,-0.09765 -3.935008,0.675921 -5.366793,-0.120758 l -9.135991,-0.761113 c -1.048122,-0.425993 -1.425555,-2.059218 -2.057831,-3.233704 -2.007575,-1.528911 -3.000976,-0.18435 -3.919673,1.371876 l 0.587955,2.155817 c -0.402992,0.812857 -1.195401,1.495933 -0.293983,2.743743 l -0.979914,0.29404 c -1.340291,2.80876 -1.288766,5.96558 -1.665859,9.01519 l -1.077913,1.56786 c -0.508387,1.73716 0.318758,0.97021 0.783936,0.88192 0.457297,-0.41606 0.914587,-0.61016 1.371891,-1.76385 1.189815,-2.59623 2.458276,-10.15702 2.890753,-7.69241 l 3.380711,4.85065 c 1.067308,3.44934 3.988039,5.48137 7.251394,7.25135 2.38447,1.22791 4.768935,1.46093 7.153406,1.66587 1.5649,-0.49042 1.360111,-1.27586 0.58795,-2.15581 -3.701879,-0.3484 -6.247281,-1.85335 -8.525284,-3.62571 -3.676675,-2.66046 -5.219452,-5.54379 -0.195984,-9.11319 l 10.485116,0.19598 7.93734,-0.19598 c -0.08823,1.4666 0.350013,3.00841 1.175901,4.60561 l 0.881925,0.97986 3.821677,0.29398 c 0.936058,1.06061 1.513383,2.1929 3.037742,3.13579 4.442306,1.52711 8.884576,2.96911 13.326793,3.72366 1.863893,-1.00578 0.898145,-1.86267 0.39199,-2.74375 z"
       style="fill:#d9d9d9;fill-opacity:1;stroke:#ffffff;stroke-width:0;stroke-linecap:butt;stroke-linejoin:miter;stroke-miterlimit:4;stroke-dasharray:none;stroke-opacity:1;opacity:1" />
  </g>
  <g
     inkscape:label="human_1"
     id="layer4"
     inkscape:groupmode="layer"
     style="display:inline">
    <path
       sodipodi:nodetypes="ccccccccccccccccccccccccccccccccccccccccccccccccccccccccccccccccccccccccccccccccccccccccccccccccccccccccccccccccccccc"
       id="path851"
       d="m 134.65629,171.65696 -1.31649,4.12282 c -1.53395,2.99629 -2.02771,4.53621 -2.63307,5.33539 l -2.35589,3.88027 c -0.42562,1.37703 -0.61342,2.59544 -0.48499,3.60312 0.58364,1.43473 1.38996,1.31084 2.148,1.52441 7.68338,-0.20286 8.86533,-3.076 11.71011,-5.26611 l -0.20791,-2.07872 3.67245,-4.64245 1.62835,0.90077 1.97476,-2.56379 c 0.17232,-1.59219 0.31725,-3.17628 -1.31656,-4.22667 -1.51474,-1.69831 -2.55499,-5.13639 -4.57315,-4.98894 -0.77845,-5.58342 -1.66333,-11.12679 -1.73223,-16.97622 0.32023,-3.32443 0.08,-6.36854 -0.13862,-9.4236 -0.77888,-3.52751 -1.59358,-7.04714 -3.18737,-10.39359 l -4.15741,-7.6912 c -0.347,-2.80691 -2.29582,-4.30322 -0.83149,-8.59203 0.22325,-4.71043 1.23507,-8.919 0.55431,-14.204656 -0.47554,-4.269924 -0.2635,-8.687271 0.55436,-13.234423 0.13201,-4.486346 0.14946,-9.007977 -0.90083,-13.858129 l 0.34647,-1.247233 c -3.20061,-4.110133 -5.08936,-7.22667 -11.71014,-13.927421 -2.73276,-2.739472 -5.81445,-5.269646 -7.69124,-8.522755 l -8.10702,-10.255014 c -2.4446,-3.479429 -4.60835,-6.993955 -9.908483,-10.116434 L 89.89459,26.319893 C 88.284866,25.361152 86.544351,24.6204 85.459983,22.78607 c -0.921512,-0.440813 -2.404437,-0.413788 -4.434598,0.06924 -0.887704,-0.710996 -2.29024,-1.164575 -1.801556,-2.563757 -1.046385,-2.05843 -0.794012,-3.597358 0,-4.919635 0.212535,-1.358049 -0.0025,-2.520114 -0.692908,-4.781049 L 74.581352,6.8492058 C 73.061321,5.4821295 70.433615,5.2227247 67.444402,5.3248166 56.912268,6.3641923 53.773423,11.10021 51.230395,16.134154 c -1.395741,3.982593 -1.555611,6.729326 -1.108644,8.869203 l 1.940139,3.880283 c 1.590278,0.228637 1.150863,1.037192 1.593684,1.593683 -1.918019,2.66146 -0.82025,3.15156 1.870848,2.494464 l 1.940136,-1.662975 0.537004,0.554323 -0.329131,2.979493 c 0.342799,0.585349 0.835185,0.846588 1.455104,0.831497 l 1.316524,-1.177942 1.039359,1.385813 c 0.588985,0.228647 0.688801,0.750797 0.831489,1.247229 1.165546,0.640022 1.929311,1.531165 2.355883,2.633047 0.596317,0.83149 1.085238,0.48159 1.593686,0.346454 0.785296,-0.678647 1.570579,-1.604757 2.355876,-1.593684 l 0.346447,0.415742 -0.62361,4.642475 c 1.370737,5.25098 0.906422,6.59261 1.108654,9.354231 -0.692303,4.282044 -0.855467,8.458259 -0.900783,12.610905 l -3.395234,9.631404 c -0.805209,3.391264 -1.697534,6.259783 -2.633051,8.869208 l -1.593681,5.127503 c -1.286235,2.482855 -2.688625,4.655934 -4.365312,6.097569 -1.679042,0.917648 -3.138783,1.890118 -3.780845,3.06699 l 0.247019,0.536073 c -0.791503,0.741871 -0.724201,1.626928 -0.762195,2.494398 l 0.346447,1.52443 c -0.892173,0.25762 -2.267383,-0.33015 -3.672401,-0.96996 -0.580123,0.52547 -0.903947,1.15347 -0.831489,1.94002 0.162235,0.72981 -0.05488,1.53539 0.692907,2.14806 0.464923,1.13022 0.905471,2.00323 2.127719,2.75481 l 1.466992,-0.63206 0.63202,-1.9149 -2.2173,-1.31653 3.533827,-0.97009 c 0.418115,-1.64187 0.156526,-3.67209 1.385809,-4.850289 0.884993,1.093609 3.441724,0.849719 5.543253,0.970079 l 1.769377,-1.495715 1.002247,-1.414494 -1.247226,-1.039358 0.623608,-0.692891 2.37967,-0.39546 c 1.768691,-2.938602 3.861624,-5.918537 5.242307,-9.374505 2.084566,-3.868595 3.980384,-8.114667 5.543253,-13.026653 l 1.455106,-9.631394 1.177942,-6.097577 0.623616,-0.207876 c 2.116059,4.375143 6.021507,6.524279 8.791501,6.952844 2.704647,2.194208 4.853314,4.780377 6.383167,6.974586 l 0.900713,0.485033 -0.762079,1.801557 c -6.946256,3.658258 -11.060698,8.982242 -15.936918,13.858129 l -8.037718,9.700659 c 1.387309,1.190559 2.922384,1.346766 4.434596,1.662986 -0.967763,-1.330855 -2.078142,-2.633148 -2.425171,-4.088128 l 2.009431,-2.217296 c 0.531232,-0.02416 1.062455,-0.423403 1.593681,0.138577 1.00661,1.698652 2.272649,2.748754 3.533828,3.810971 -0.505816,0.917724 -1.23226,1.688353 -1.385814,2.840878 -0.438934,1.002411 -0.02824,1.665067 0.138581,2.425227 0.390047,0.61049 0.636204,0.50165 0.900785,0.48504 -0.228043,0.66182 -0.130479,1.18431 0.554315,1.45502 0.02412,1.01529 0.447452,1.63131 1.385814,1.73229 l 4.503897,-4.988907 c 0.486742,-0.585887 0.814263,-0.375841 1.177941,-0.34652 l -0.346447,1.455197 -2.979508,2.42512 c 0.269793,0.54035 0.197381,1.31855 1.247238,1.3165 1.361852,-0.67439 2.600726,-1.45128 3.187368,-2.77159 l 0.623615,-1.73224 3.118086,-1.732248 c 4.13766,-1.429626 8.276583,-2.80701 12.402993,-4.711763 l 5.88971,-4.018856 c 2.53037,3.216289 2.31477,5.184415 2.97951,7.552657 1.96653,6.94997 2.36414,11.28504 3.32591,16.56047 0.93119,3.05457 2.20553,6.12535 2.42521,9.14633 0.64309,2.08235 1.07136,4.37945 2.77157,5.40469 l 1.10868,2.91021 2.63305,5.26612 c 2.18314,3.53119 2.58957,8.12843 3.88029,12.19514 l 1.73228,6.02821 c 3.19582,5.87908 2.85686,9.88032 3.25665,14.27392 -0.0379,0.86024 0.33391,2.21277 -0.20791,2.73696 z"
       style="fill:#d9d9d9;fill-opacity:1;stroke:#ffffff;stroke-width:0;stroke-linecap:butt;stroke-linejoin:miter;stroke-opacity:1;stroke-miterlimit:4;stroke-dasharray:none" />
  </g>
</svg>
