<?xml version="1.0" encoding="UTF-8" standalone="no"?>
<svg
   xmlns:dc="http://purl.org/dc/elements/1.1/"
   xmlns:cc="http://creativecommons.org/ns#"
   xmlns:rdf="http://www.w3.org/1999/02/22-rdf-syntax-ns#"
   xmlns:svg="http://www.w3.org/2000/svg"
   xmlns="http://www.w3.org/2000/svg"
   xmlns:sodipodi="http://sodipodi.sourceforge.net/DTD/sodipodi-0.dtd"
   xmlns:inkscape="http://www.inkscape.org/namespaces/inkscape"
   width="250mm"
   height="250mm"
   viewBox="0 0 250 250"
   version="1.1"
   id="svg8"
   inkscape:version="1.0 (4035a4fb49, 2020-05-01)"
   sodipodi:docname="running_logo.svg">
  <defs
     id="defs2" />
  <sodipodi:namedview
     id="base"
     pagecolor="#ffffff"
     bordercolor="#666666"
     borderopacity="1.0"
     inkscape:pageopacity="0.0"
     inkscape:pageshadow="2"
     inkscape:zoom="0.7"
     inkscape:cx="512.21777"
     inkscape:cy="518.99256"
     inkscape:document-units="px"
     inkscape:current-layer="layer2"
     inkscape:document-rotation="0"
     showgrid="false"
     inkscape:window-width="1920"
     inkscape:window-height="1027"
     inkscape:window-x="-8"
     inkscape:window-y="-8"
     inkscape:window-maximized="1" />
  <metadata
     id="metadata5">
    <rdf:RDF>
      <cc:Work
         rdf:about="">
        <dc:format>image/svg+xml</dc:format>
        <dc:type
           rdf:resource="http://purl.org/dc/dcmitype/StillImage" />
        <dc:title />
      </cc:Work>
    </rdf:RDF>
  </metadata>
  <g
     inkscape:groupmode="layer"
     id="layer2"
     inkscape:label="tracing">
    <path
       id="path848"
       style="fill:#d9d9d9;fill-opacity:1;stroke:#000000;stroke-width:0;stroke-linecap:butt;stroke-linejoin:miter;stroke-miterlimit:4;stroke-dasharray:none;stroke-opacity:1"
       d="M 419.64258 70 L 396.07227 83.572266 L 386.07227 99.285156 L 394.28516 110.35742 L 391.42773 116.78516 L 396.78516 136.07227 L 399.64258 146.42773 L 405.71484 151.78516 L 406.78516 163.57227 L 415.35742 177.85742 L 424.64258 190.71484 L 432.5 211.42773 L 423.57227 218.21484 L 412.85742 222.14258 L 396.78516 229.28516 L 388.92773 239.64258 L 388.57227 260 L 388.92773 277.85742 L 386.42773 288.21484 L 386.78516 306.07227 L 366.07227 333.92773 L 338.21484 358.92773 L 332.85742 359.64258 L 316.07227 380 L 321.07227 385.35742 L 329.64258 390.35742 L 331.07227 402.85742 L 339.28516 413.57227 C 339.28516 413.57227 350.71429 414.28655 357.5 416.07227 C 364.28571 417.85798 372.14258 411.78516 372.14258 411.78516 L 377.14258 400.35742 L 379.28516 380.35742 L 365.35742 367.85742 L 365.35742 362.85742 L 387.14258 352.14258 L 411.42773 340 L 415 351.07227 L 410.71484 374.28516 L 410.35742 402.5 L 408.92773 428.92773 L 404.28516 458.57227 L 396.78516 474.64258 L 390.35742 478.57227 L 389.28516 486.07227 L 394.64258 491.78516 L 389.64258 537.85742 L 390.35742 570.35742 L 393.57227 606.78516 L 391.78516 622.85742 L 397.85742 635.35742 L 390.71484 666.07227 L 389.28516 695.35742 L 393.21484 745.35742 L 397.85742 797.85742 L 400.71484 826.07227 L 394.28516 830.35742 L 379.28516 828.57227 L 367.85742 830.35742 L 360.71484 837.5 L 350 851.42773 L 347.85742 860.71484 L 369.28516 867.5 L 392.85742 877.85742 L 406.07227 888.57227 L 420.35742 890 L 437.5 882.14258 L 436.07227 864.28516 L 427.5 849.28516 L 427.85742 824.64258 L 423.57227 791.42773 L 427.85742 756.78516 L 435.71484 729.64258 L 440 688.92773 L 436.78516 675.35742 L 436.42773 665.71484 L 445 636.42773 L 445.35742 611.78516 L 453.21484 582.85742 C 453.21484 582.85742 469.2849 534.64343 468.92773 533.21484 C 468.57061 531.7863 477.5 535.35742 477.5 535.35742 L 493.92773 533.92773 L 496.42773 549.28516 L 500 567.85742 L 503.57227 602.5 L 509.28516 627.14258 L 522.14258 637.85742 L 530.35742 641.78516 L 541.07227 641.78516 C 541.07227 641.78516 549.64202 635 551.42773 635 C 553.21345 635 554.64258 642.85742 554.64258 642.85742 L 566.42773 656.07227 L 582.85742 645.71484 L 588.57227 628.21484 L 587.5 603.57227 L 582.14258 579.64258 L 580.71484 558.21484 L 566.07227 549.28516 L 558.21484 550.35742 L 560 533.21484 L 560.71484 508.21484 L 560 476.42773 L 554.64258 439.64258 L 546.78516 411.78516 L 548.57227 398.21484 L 555.35742 383.92773 L 573.92773 374.64258 L 632.14258 317.14258 L 633.21484 301.07227 L 585.71484 247.14258 L 562.5 215.71484 L 545.35742 198.57227 L 518.21484 191.07227 L 490.71484 185.71484 L 477.5 176.07227 L 476.07227 156.78516 L 485.71484 150.71484 L 484.28516 129.64258 L 476.78516 87.142578 L 446.78516 70.714844 L 419.64258 70 z M 541.07227 262.14258 L 554.28516 268.57227 L 593.57227 305.35742 L 589.28516 311.07227 L 567.5 341.07227 L 547.14258 355.71484 L 547.85742 342.5 L 552.85742 327.5 L 554.28516 300.35742 L 551.07227 282.14258 L 541.07227 262.14258 z "
       transform="scale(0.26458333)" />
  </g>
</svg>
