<?xml version="1.0" encoding="UTF-8" standalone="no"?>
<svg
   xmlns:dc="http://purl.org/dc/elements/1.1/"
   xmlns:cc="http://creativecommons.org/ns#"
   xmlns:rdf="http://www.w3.org/1999/02/22-rdf-syntax-ns#"
   xmlns:svg="http://www.w3.org/2000/svg"
   xmlns="http://www.w3.org/2000/svg"
   xmlns:sodipodi="http://sodipodi.sourceforge.net/DTD/sodipodi-0.dtd"
   xmlns:inkscape="http://www.inkscape.org/namespaces/inkscape"
   sodipodi:docname="swimming-logo-minified.svg"
   inkscape:version="1.0 (4035a4fb49, 2020-05-01)"
   id="svg8"
   version="1.1"
   viewBox="0 0 250 250"
   height="250mm"
   width="250mm">
  <defs
     id="defs2" />
  <sodipodi:namedview
     inkscape:window-maximized="1"
     inkscape:window-y="-8"
     inkscape:window-x="-8"
     inkscape:window-height="1027"
     inkscape:window-width="1920"
     showgrid="false"
     inkscape:document-rotation="0"
     inkscape:current-layer="layer2"
     inkscape:document-units="px"
     inkscape:cy="691.86087"
     inkscape:cx="472.56773"
     inkscape:zoom="0.98994949"
     inkscape:pageshadow="2"
     inkscape:pageopacity="0.0"
     borderopacity="1.0"
     bordercolor="#666666"
     pagecolor="#ffffff"
     id="base" />
  <metadata
     id="metadata5">
    <rdf:RDF>
      <cc:Work
         rdf:about="">
        <dc:format>image/svg+xml</dc:format>
        <dc:type
           rdf:resource="http://purl.org/dc/dcmitype/StillImage" />
        <dc:title />
      </cc:Work>
    </rdf:RDF>
  </metadata>
  <g
     inkscape:label="tracing"
     id="layer2"
     inkscape:groupmode="layer">
    <path
       sodipodi:nodetypes="ccccccccccccccccccccccccccccccccccccccccccccccccccccccccc"
       id="path848"
       d="m 72.430041,154.74905 6.681737,-16.30344 12.82894,-10.15624 14.699822,-10.95805 13.09621,-10.42351 13.36347,-12.294399 17.10525,-8.819893 20.04522,-4.810852 11.49259,-3.474503 5.87993,-3.474503 9.08716,-5.612662 3.4745,-0.534538 12.2944,-3.741774 2.6727,2.672696 7.21627,-1.870887 2.40543,2.939965 4.00904,2.405425 -2.93996,3.741775 3.74177,2.405424 -18.17433,8.552625 5.07812,1.870887 0.53454,3.207234 -5.61266,0.801809 -6.949,1.069079 -4.27632,2.939962 -8.01808,-0.801806 -4.81085,-1.603619 -9.88898,1.069078 -13.63074,6.949007 -10.95805,6.1472 -14.43256,5.61266 -12.82893,15.7689 -11.22532,11.75986 -3.47451,6.41447 -0.53454,5.61266 5.87993,2.67269 7.21628,4.54359 2.13816,2.13815 -11.49259,-2.13815 -10.42351,0.8018 -10.958056,4.54359 -5.34539,3.74177 -15.501633,0.26727 -12.561665,-0.80181 -15.501633,-2.13815 -10.156243,-1.33635 -12.294398,-1.87089 -6.949008,-5.61266 -1.870886,-5.61266 10.879768,-11.21745 10.550432,-3.32071 12.626519,-1.98161 9.467921,4.784 7.607685,7.23527 3.390658,8.24227 4.81085,1.60362 z"
       style="fill:#d9d9d9;fill-opacity:1;stroke:#000000;stroke-width:0;stroke-linecap:butt;stroke-linejoin:miter;stroke-miterlimit:4;stroke-dasharray:none;stroke-opacity:1" />
    <path
       id="path833"
       d="m 6.047619,162.52976 27.389747,10.01637 32.273189,1.32292 28.026717,2.07886 21.020038,-7.37053 21.23236,-1.51191 c 0,0 28.45137,4.91369 32.27319,3.02381 3.82183,-1.88988 20.17074,-10.96131 20.17074,-10.96131 l -14.438,14.17411 h -27.60207 l -13.16406,-2.07887 -20.38307,1.7009 -17.410539,9.63839 -26.752775,-3.59078 -28.026719,-1.32291 -23.780243,-5.29167 z"
       style="display:inline;fill:#d9d9d9;fill-opacity:1;stroke:#000000;stroke-width:0;stroke-linecap:butt;stroke-linejoin:miter;stroke-miterlimit:4;stroke-dasharray:none;stroke-opacity:1" />
    <path
       id="path835"
       d="m 153.83631,179.3497 -27.21429,-1.13393 -28.726188,11.71726 -28.348215,-2.26785 -20.032736,-4.53572 -24.379465,0.56697 -16.0639876,-10.39435 15.8749996,17.57589 23.056547,-3.40178 24.190476,4.15774 14.363096,3.02381 21.166663,-2.07887 17.76488,-9.6384 z"
       style="display:inline;fill:#d9d9d9;stroke:#000000;stroke-width:0;stroke-linecap:butt;stroke-linejoin:miter;stroke-opacity:1;fill-opacity:1;stroke-miterlimit:4;stroke-dasharray:none" />
    <path
       style="display:inline;fill:#d9d9d9;fill-opacity:1;stroke:#000000;stroke-width:0;stroke-linecap:butt;stroke-linejoin:miter;stroke-miterlimit:4;stroke-dasharray:none;stroke-opacity:1"
       d="M 135.72532,195.02013 111.87737,193.8862 86.704538,205.60346 61.86293,203.33561 44.308194,198.79989 22.944408,199.36686 8.8674965,188.97251 22.778797,206.5484 l 20.20451,-3.40178 21.198174,4.15774 12.586418,3.02381 18.548399,-2.07887 15.567412,-9.6384 z"
       id="path835-6" />
  </g>
</svg>
